# Vectary OBJ Export units=mm
mtllib Project Name.mtl
o 000_SquarePlane_4
g SquarePlane_4
usemtl SquarePlane material 1_bbe5a11d-7ac3-4dee-9880-90500628396b
v -50.000 49.838 0.623
v -50.000 49.838 -49.377
v -50.000 -0.162 -49.377
v -50.000 -0.162 0.623
v -50.000 99.838 0.623
v -50.000 99.838 -49.377
v -50.000 49.838 50.623
v -50.000 -0.162 50.623
v -50.000 99.838 50.623
vt 0.50000 0.50000
vt 0.00000 0.50000
vt 0.00000 0.00000
vt 0.50000 0.00000
vt 0.50000 1.00000
vt 0.00000 1.00000
vt 1.00000 0.50000
vt 1.00000 0.00000
vt 1.00000 1.00000
vn -1.00000 0.00000 0.00000
vn -1.00000 0.00000 0.00000
vn -1.00000 0.00000 0.00000
vn -1.00000 0.00000 0.00000
vn -1.00000 0.00000 0.00000
vn -1.00000 0.00000 0.00000
vn -1.00000 0.00000 0.00000
vn -1.00000 0.00000 0.00000
vn -1.00000 0.00000 0.00000
vn -1.00000 0.00000 0.00000
vn -1.00000 0.00000 0.00000
vn -1.00000 0.00000 0.00000
vn -1.00000 0.00000 0.00000
vn -1.00000 0.00000 0.00000
vn -1.00000 0.00000 0.00000
vn -1.00000 0.00000 0.00000
f 2/2/2 3/3/3 4/4/4 1/1/1 
f 6/6/6 2/2/7 1/1/8 5/5/5 
f 1/1/10 4/4/11 8/8/12 7/7/9 
f 5/5/14 1/1/15 7/7/16 9/9/13 
o 001_SquarePlane_3
g SquarePlane_3
usemtl SquarePlane material 1_bbe5a11d-7ac3-4dee-9880-90500628396b
v -0.383 49.944 -50.000
v 49.617 49.944 -50.000
v 49.617 -0.056 -50.000
v -0.383 -0.056 -50.000
v -0.383 99.944 -50.000
v 49.617 99.944 -50.000
v -50.383 49.944 -50.000
v -50.383 -0.056 -50.000
v -50.383 99.944 -50.000
vt 0.50000 0.50000
vt 0.00000 0.50000
vt 0.00000 0.00000
vt 0.50000 0.00000
vt 0.50000 1.00000
vt 0.00000 1.00000
vt 1.00000 0.50000
vt 1.00000 0.00000
vt 1.00000 1.00000
vn 0.00000 0.00000 -1.00000
vn 0.00000 0.00000 -1.00000
vn 0.00000 0.00000 -1.00000
vn 0.00000 0.00000 -1.00000
vn 0.00000 0.00000 -1.00000
vn 0.00000 0.00000 -1.00000
vn 0.00000 0.00000 -1.00000
vn 0.00000 0.00000 -1.00000
vn 0.00000 0.00000 -1.00000
vn 0.00000 0.00000 -1.00000
vn 0.00000 0.00000 -1.00000
vn 0.00000 0.00000 -1.00000
vn 0.00000 0.00000 -1.00000
vn 0.00000 0.00000 -1.00000
vn 0.00000 0.00000 -1.00000
vn 0.00000 0.00000 -1.00000
f 11/11/18 12/12/19 13/13/20 10/10/17 
f 15/15/22 11/11/23 10/10/24 14/14/21 
f 10/10/26 13/13/27 17/17/28 16/16/25 
f 14/14/30 10/10/31 16/16/32 18/18/29 
o 002_SquarePlane_2
g SquarePlane_2
usemtl SquarePlane material_e4bf607a-b276-4ebe-b224-0ccae8639b11
v 50.000 49.909 -0.336
v 50.000 49.909 49.664
v 50.000 -0.091 49.664
v 50.000 -0.091 -0.336
v 50.000 99.909 -0.336
v 50.000 99.909 49.664
v 50.000 49.909 -50.336
v 50.000 -0.091 -50.336
v 50.000 99.909 -50.336
vt 0.50000 0.50000
vt 0.00000 0.50000
vt 0.00000 0.00000
vt 0.50000 0.00000
vt 0.50000 1.00000
vt 0.00000 1.00000
vt 1.00000 0.50000
vt 1.00000 0.00000
vt 1.00000 1.00000
vn 1.00000 0.00000 0.00000
vn 1.00000 0.00000 0.00000
vn 1.00000 0.00000 0.00000
vn 1.00000 0.00000 0.00000
vn 1.00000 0.00000 0.00000
vn 1.00000 0.00000 0.00000
vn 1.00000 0.00000 0.00000
vn 1.00000 0.00000 0.00000
vn 1.00000 0.00000 0.00000
vn 1.00000 0.00000 0.00000
vn 1.00000 0.00000 0.00000
vn 1.00000 0.00000 0.00000
vn 1.00000 0.00000 0.00000
vn 1.00000 0.00000 0.00000
vn 1.00000 0.00000 0.00000
vn 1.00000 0.00000 0.00000
f 20/20/34 21/21/35 22/22/36 19/19/33 
f 24/24/38 20/20/39 19/19/40 23/23/37 
f 19/19/42 22/22/43 26/26/44 25/25/41 
f 23/23/46 19/19/47 25/25/48 27/27/45 
o 003_SquarePlane_1
g SquarePlane_1
usemtl SquarePlane material_e4bf607a-b276-4ebe-b224-0ccae8639b11
v -0.076 49.779 50.000
v -50.076 49.779 50.000
v -50.076 -0.221 50.000
v -0.076 -0.221 50.000
v -0.076 99.779 50.000
v -50.076 99.779 50.000
v 49.924 49.779 50.000
v 49.924 -0.221 50.000
v 49.924 99.779 50.000
vt 0.50000 0.50000
vt 0.00000 0.50000
vt 0.00000 0.00000
vt 0.50000 0.00000
vt 0.50000 1.00000
vt 0.00000 1.00000
vt 1.00000 0.50000
vt 1.00000 0.00000
vt 1.00000 1.00000
vn 0.00000 0.00000 1.00000
vn 0.00000 0.00000 1.00000
vn 0.00000 0.00000 1.00000
vn 0.00000 0.00000 1.00000
vn 0.00000 0.00000 1.00000
vn 0.00000 0.00000 1.00000
vn 0.00000 0.00000 1.00000
vn 0.00000 0.00000 1.00000
vn 0.00000 0.00000 1.00000
vn 0.00000 0.00000 1.00000
vn 0.00000 0.00000 1.00000
vn 0.00000 0.00000 1.00000
vn 0.00000 0.00000 1.00000
vn 0.00000 0.00000 1.00000
vn 0.00000 0.00000 1.00000
vn 0.00000 0.00000 1.00000
f 29/29/50 30/30/51 31/31/52 28/28/49 
f 33/33/54 29/29/55 28/28/56 32/32/53 
f 28/28/58 31/31/59 35/35/60 34/34/57 
f 32/32/62 28/28/63 34/34/64 36/36/61 
o 004_SquarePlane
g SquarePlane
usemtl Material_9d96db6b-6a78-443a-8dcc-2f798536dfde
v 0.305 100.000 -0.074
v -49.695 100.000 -0.074
v -49.695 100.000 49.926
v 0.305 100.000 49.926
v 0.305 100.000 -50.074
v -49.695 100.000 -50.074
v 50.305 100.000 -0.074
v 50.305 100.000 49.926
v 50.305 100.000 -50.074
vt 0.50000 0.50000
vt 0.00000 0.50000
vt 0.00000 0.00000
vt 0.50000 0.00000
vt 0.50000 1.00000
vt 0.00000 1.00000
vt 1.00000 0.50000
vt 1.00000 0.00000
vt 1.00000 1.00000
vn 0.00000 1.00000 0.00000
vn 0.00000 1.00000 0.00000
vn 0.00000 1.00000 0.00000
vn 0.00000 1.00000 0.00000
vn 0.00000 1.00000 0.00000
vn 0.00000 1.00000 0.00000
vn 0.00000 1.00000 0.00000
vn 0.00000 1.00000 0.00000
vn 0.00000 1.00000 0.00000
vn 0.00000 1.00000 0.00000
vn 0.00000 1.00000 0.00000
vn 0.00000 1.00000 0.00000
vn 0.00000 1.00000 0.00000
vn 0.00000 1.00000 0.00000
vn 0.00000 1.00000 0.00000
vn 0.00000 1.00000 0.00000
f 38/38/66 39/39/67 40/40/68 37/37/65 
f 42/42/70 38/38/71 37/37/72 41/41/69 
f 37/37/74 40/40/75 44/44/76 43/43/73 
f 41/41/78 37/37/79 43/43/80 45/45/77 
o 005_Box_-_baked
g Box_-_baked
usemtl Material 1_f1a3463b-b753-43da-bc76-cb136ed53614
v 50.000 0.000 -0.000
v 50.000 -0.000 50.000
v 0.000 -0.000 50.000
v 0.000 0.000 -0.000
v -50.000 -0.000 50.000
v -50.000 0.000 -0.000
v 50.000 0.000 -50.000
v 0.000 0.000 -50.000
v -50.000 0.000 -50.000
v -50.000 50.000 -50.000
v -50.000 50.000 0.000
v -50.000 50.000 50.000
v -50.000 100.000 -50.000
v -50.000 100.000 0.000
v -50.000 100.000 50.000
v 0.000 50.000 50.000
v 50.000 50.000 50.000
v 0.000 100.000 50.000
v 50.000 100.000 50.000
v 50.000 50.000 -50.000
v 0.000 50.000 -50.000
v 50.000 100.000 -50.000
v 0.000 100.000 -50.000
v 50.000 50.000 0.000
v 50.000 100.000 0.000
v 0.000 100.000 0.000
vt 0.00000 0.50000
vt 0.00000 0.00000
vt 0.50000 0.00000
vt 0.50000 0.50000
vt 1.00000 0.00000
vt 1.00000 0.50000
vt 0.00000 1.00000
vt 0.50000 1.00000
vt 1.00000 1.00000
vt 0.00000 0.50000
vt 0.00000 0.00000
vt 0.50000 0.00000
vt 0.50000 0.50000
vt 1.00000 0.00000
vt 1.00000 0.50000
vt 0.00000 1.00000
vt 0.50000 1.00000
vt 1.00000 1.00000
vt 0.00000 0.50000
vt 0.00000 0.00000
vt 0.50000 0.00000
vt 0.50000 0.50000
vt 1.00000 0.00000
vt 1.00000 0.50000
vt 0.00000 1.00000
vt 0.50000 1.00000
vt 1.00000 1.00000
vt 0.00000 0.50000
vt 0.00000 0.00000
vt 0.50000 0.00000
vt 0.50000 0.50000
vt 1.00000 0.00000
vt 1.00000 0.50000
vt 0.00000 1.00000
vt 0.50000 1.00000
vt 1.00000 1.00000
vt 0.00000 0.50000
vt 0.00000 0.00000
vt 0.50000 0.00000
vt 0.50000 0.50000
vt 1.00000 0.00000
vt 1.00000 0.50000
vt 0.00000 1.00000
vt 0.50000 1.00000
vt 1.00000 1.00000
vt 0.00000 0.50000
vt 0.00000 0.00000
vt 0.50000 0.00000
vt 0.50000 0.50000
vt 1.00000 0.00000
vt 1.00000 0.50000
vt 0.00000 1.00000
vt 0.50000 1.00000
vt 1.00000 1.00000
vn 0.00000 -1.00000 -0.00000
vn 0.00000 -1.00000 -0.00000
vn 0.00000 -1.00000 -0.00000
vn 0.00000 -1.00000 -0.00000
vn 0.00000 -1.00000 -0.00000
vn 0.00000 -1.00000 -0.00000
vn 0.00000 -1.00000 -0.00000
vn 0.00000 -1.00000 -0.00000
vn 0.00000 -1.00000 -0.00000
vn 0.00000 -1.00000 -0.00000
vn 0.00000 -1.00000 -0.00000
vn 0.00000 -1.00000 -0.00000
vn 0.00000 -1.00000 -0.00000
vn 0.00000 -1.00000 -0.00000
vn 0.00000 -1.00000 -0.00000
vn 0.00000 -1.00000 -0.00000
vn -1.00000 0.00000 0.00000
vn -1.00000 0.00000 0.00000
vn -1.00000 0.00000 0.00000
vn -1.00000 0.00000 0.00000
vn -1.00000 0.00000 0.00000
vn -1.00000 0.00000 0.00000
vn -1.00000 0.00000 0.00000
vn -1.00000 0.00000 0.00000
vn -1.00000 0.00000 0.00000
vn -1.00000 0.00000 0.00000
vn -1.00000 0.00000 0.00000
vn -1.00000 0.00000 0.00000
vn -1.00000 0.00000 0.00000
vn -1.00000 0.00000 0.00000
vn -1.00000 0.00000 0.00000
vn -1.00000 0.00000 0.00000
vn 0.00000 -0.00000 1.00000
vn 0.00000 -0.00000 1.00000
vn 0.00000 -0.00000 1.00000
vn 0.00000 -0.00000 1.00000
vn 0.00000 -0.00000 1.00000
vn 0.00000 -0.00000 1.00000
vn 0.00000 -0.00000 1.00000
vn 0.00000 -0.00000 1.00000
vn 0.00000 -0.00000 1.00000
vn 0.00000 -0.00000 1.00000
vn 0.00000 -0.00000 1.00000
vn 0.00000 -0.00000 1.00000
vn 0.00000 -0.00000 1.00000
vn 0.00000 -0.00000 1.00000
vn 0.00000 -0.00000 1.00000
vn 0.00000 -0.00000 1.00000
vn 0.00000 0.00000 -1.00000
vn 0.00000 0.00000 -1.00000
vn 0.00000 0.00000 -1.00000
vn 0.00000 0.00000 -1.00000
vn 0.00000 0.00000 -1.00000
vn 0.00000 0.00000 -1.00000
vn 0.00000 0.00000 -1.00000
vn 0.00000 0.00000 -1.00000
vn 0.00000 0.00000 -1.00000
vn 0.00000 0.00000 -1.00000
vn 0.00000 0.00000 -1.00000
vn 0.00000 0.00000 -1.00000
vn 0.00000 0.00000 -1.00000
vn 0.00000 0.00000 -1.00000
vn 0.00000 0.00000 -1.00000
vn 0.00000 0.00000 -1.00000
vn 1.00000 0.00000 0.00000
vn 1.00000 0.00000 0.00000
vn 1.00000 0.00000 0.00000
vn 1.00000 0.00000 0.00000
vn 1.00000 0.00000 0.00000
vn 1.00000 0.00000 0.00000
vn 1.00000 0.00000 0.00000
vn 1.00000 0.00000 0.00000
vn 1.00000 0.00000 0.00000
vn 1.00000 0.00000 0.00000
vn 1.00000 0.00000 0.00000
vn 1.00000 0.00000 0.00000
vn 1.00000 0.00000 0.00000
vn 1.00000 0.00000 0.00000
vn 1.00000 0.00000 0.00000
vn 1.00000 0.00000 0.00000
vn 0.00000 1.00000 0.00000
vn 0.00000 1.00000 0.00000
vn 0.00000 1.00000 0.00000
vn 0.00000 1.00000 0.00000
vn 0.00000 1.00000 0.00000
vn 0.00000 1.00000 0.00000
vn 0.00000 1.00000 0.00000
vn 0.00000 1.00000 0.00000
vn 0.00000 1.00000 0.00000
vn 0.00000 1.00000 0.00000
vn 0.00000 1.00000 0.00000
vn 0.00000 1.00000 0.00000
vn 0.00000 1.00000 0.00000
vn 0.00000 1.00000 0.00000
vn 0.00000 1.00000 0.00000
vn 0.00000 1.00000 0.00000
f 47/47/82 48/48/83 49/49/84 46/46/81 
f 48/48/86 50/50/87 51/51/88 49/49/85 
f 46/46/90 49/49/91 53/53/92 52/52/89 
f 49/49/94 51/51/95 54/54/96 53/53/93 
f 54/56/98 51/57/99 56/58/100 55/55/97 
f 51/57/102 50/59/103 57/60/104 56/58/101 
f 55/55/106 56/58/107 59/62/108 58/61/105 
f 56/58/110 57/60/111 60/63/112 59/62/109 
f 50/65/114 48/66/115 61/67/116 57/64/113 
f 48/66/118 47/68/119 62/69/120 61/67/117 
f 57/64/122 61/67/123 63/71/124 60/70/121 
f 61/67/126 62/69/127 64/72/128 63/71/125 
f 52/74/130 53/75/131 66/76/132 65/73/129 
f 53/75/134 54/77/135 55/78/136 66/76/133 
f 65/73/138 66/76/139 68/80/140 67/79/137 
f 66/76/142 55/78/143 58/81/144 68/80/141 
f 47/83/146 46/84/147 69/85/148 62/82/145 
f 46/84/150 52/86/151 65/87/152 69/85/149 
f 62/82/154 69/85/155 70/89/156 64/88/153 
f 69/85/158 65/87/159 67/90/160 70/89/157 
f 60/92/162 63/93/163 71/94/164 59/91/161 
f 63/93/166 64/95/167 70/96/168 71/94/165 
f 59/91/170 71/94/171 68/98/172 58/97/169 
f 71/94/174 70/96/175 67/99/176 68/98/173 
